<svg xmlns="http://www.w3.org/2000/svg" width="86.82" height="87.14" viewBox="0 0 86.82 87.14"><defs><style>.ab7e318e-db6a-416f-a704-967d75bd8469{fill:#e1bb96;stroke-miterlimit:10;}.a88fc416-8c40-4de9-b9a4-c341125aa564,.ab7e318e-db6a-416f-a704-967d75bd8469,.ad6f5841-2804-4970-b41c-b425bf92aaf1,.ae12584e-6a6e-496e-b219-7121f477178d,.fa440f98-a748-4a1c-a835-a92cb64368dd{stroke:#211e1d;}.ab7e318e-db6a-416f-a704-967d75bd8469,.ad6f5841-2804-4970-b41c-b425bf92aaf1,.afcfa899-0d06-4397-be5b-98044c351bff{stroke-width:1.98px;}.ad6f5841-2804-4970-b41c-b425bf92aaf1,.afcfa899-0d06-4397-be5b-98044c351bff{fill:#ebba37;}.afcfa899-0d06-4397-be5b-98044c351bff{stroke:#c29522;}.a88fc416-8c40-4de9-b9a4-c341125aa564,.ad6f5841-2804-4970-b41c-b425bf92aaf1,.ae12584e-6a6e-496e-b219-7121f477178d,.afcfa899-0d06-4397-be5b-98044c351bff,.fa440f98-a748-4a1c-a835-a92cb64368dd{stroke-linecap:round;stroke-linejoin:round;}.ae12584e-6a6e-496e-b219-7121f477178d{fill:none;stroke-width:3px;}.f4ec5e60-18e6-4358-b1ca-8df3d24da7f1{fill:#c49970;}.a88fc416-8c40-4de9-b9a4-c341125aa564,.af5c5642-5ddd-4123-bc13-c573b7db2aa5{fill:#423d3b;}.a88fc416-8c40-4de9-b9a4-c341125aa564,.fa440f98-a748-4a1c-a835-a92cb64368dd{stroke-width:1.98px;}.eb3d2ef5-517c-4814-bf86-58dd75e2be37{fill:#fff0e9;}.bea509ad-12cf-4955-8b1b-83cecc97f539,.fa440f98-a748-4a1c-a835-a92cb64368dd{fill:#211e1d;}.b18e1151-a5c8-4aa6-ba70-541c8c6519a8{fill:#fff;}.b780c9df-c8ad-4ef5-aa46-d5f689834692{fill:#fe7f7f;}</style></defs><title>Asset 1</title><g id="aebdfc57-986d-40ad-a806-a1e036e2e21c" data-name="Layer 2"><g id="b4a4e0e3-71cb-4f0a-8241-190af7bb597a" data-name="Layer 1"><circle class="ab7e318e-db6a-416f-a704-967d75bd8469" cx="10.11" cy="61.55" r="9.12"/><circle class="ab7e318e-db6a-416f-a704-967d75bd8469" cx="76.71" cy="61.55" r="9.12"/><path class="afcfa899-0d06-4397-be5b-98044c351bff" d="M75.56,41.33c0,6-.3,11.67-.3,16.68a37.17,37.17,0,0,1-6.43-42.44C75.25,22.25,75.56,31.33,75.56,41.33Z"/><path class="afcfa899-0d06-4397-be5b-98044c351bff" d="M21.9,32.26A37,37,0,0,1,11.74,57.77c0-5.34-.49-10.54-.49-16.44,0-9.88.52-18.86,6.82-25.52A37,37,0,0,1,21.9,32.26Z"/><path class="ab7e318e-db6a-416f-a704-967d75bd8469" d="M43.41,86.15h0c-23.19,0-32.15,0-32.15-32.15V32h64.3V54C75.56,86.15,66.22,86.15,43.41,86.15Z"/><path class="ae12584e-6a6e-496e-b219-7121f477178d" d="M47.92,69.4a8.53,8.53,0,0,1-7.42.08"/><path class="ad6f5841-2804-4970-b41c-b425bf92aaf1" d="M75.56,41.33c0,6-.08,11.1-.08,16.68a36.82,36.82,0,0,1-6.65-42.44C75.25,22.25,75.56,31.33,75.56,41.33Z"/><path class="ad6f5841-2804-4970-b41c-b425bf92aaf1" d="M21.9,32.26A37.33,37.33,0,0,1,11.33,57.77c0-5.78-.08-10.54-.08-16.44,0-9.88.52-18.86,6.82-25.52A37,37,0,0,1,21.9,32.26Z"/><path class="ad6f5841-2804-4970-b41c-b425bf92aaf1" d="M71.06,39.44c-17.65,17.09-41.45,9.15-48.52-3.29l-.62-3.22-1.7-13A37.12,37.12,0,0,1,50.68,4.07a36.64,36.64,0,0,1,4.11.23C68,13.94,73.11,26.3,71.06,39.44Z"/><path class="f4ec5e60-18e6-4358-b1ca-8df3d24da7f1" d="M47.12,62.44c0,.87-1.31,1.58-2.93,1.58s-2.93-.71-2.93-1.58Z"/><path class="a88fc416-8c40-4de9-b9a4-c341125aa564" d="M75.56,33.14v10C69.25,34.7,57.21,29,43.41,29S17.56,34.7,11.25,43.09v-10C11.25,1,20.6,1,43.41,1,66.6,1,75.56,1,75.56,33.14Z"/><path class="eb3d2ef5-517c-4814-bf86-58dd75e2be37" d="M68.57,33.14V37.3C62.18,31.4,54.21,29,43.41,29S23.94,32.31,18.25,37.3V33.14C18.25,1,25.57,1,43.41,1,61.56,1,68.57,1,68.57,33.14Z"/><path class="fa440f98-a748-4a1c-a835-a92cb64368dd" d="M9.25,47.79c11.84-5.52,21.74-8.23,34.2-8.23,13.08,0,23.32,3.08,34.12,9C72.21,37.14,58.85,29,43.21,29,28,29,14.85,36.77,9.25,47.79Z"/><path class="af5c5642-5ddd-4123-bc13-c573b7db2aa5" d="M77.77,51.62A3,3,0,0,1,75,49.88c-5-10.66-17.7-17.82-31.62-17.82-13.72,0-26,6.71-31.27,17.1a3,3,0,0,1-2.69,1.66,3,3,0,0,1-1.37-.33,3,3,0,0,1-1.33-4.07C13.05,34,27.44,26,43.41,26c16.48,0,31,8.37,37.1,21.31a3,3,0,0,1-2.74,4.31Z"/><path class="bea509ad-12cf-4955-8b1b-83cecc97f539" d="M43.41,27c16.1,0,30.31,8.14,36.2,20.74a2,2,0,0,1-3.69,1.73c-5.15-11-18.21-18.39-32.51-18.39C29.32,31.07,16.7,38,11.26,48.71a2,2,0,0,1-1.81,1.12,2.08,2.08,0,0,1-.93-.22,2,2,0,0,1-.89-2.74C13.76,34.8,27.81,27,43.41,27m0-2C27.07,25,12.33,33.24,5.87,46a4,4,0,0,0,1.76,5.39A4,4,0,0,0,13,49.61C18.13,39.55,30.06,33,43.41,33,57,33,69.3,40,74.13,50.3a4,4,0,0,0,5.34,1.93,4,4,0,0,0,1.93-5.34C75.18,33.6,60.27,25,43.41,25Z"/><circle class="bea509ad-12cf-4955-8b1b-83cecc97f539" cx="58.61" cy="60.8" r="4.28"/><circle class="b18e1151-a5c8-4aa6-ba70-541c8c6519a8" cx="60" cy="62.2" r="1.58"/><circle class="b18e1151-a5c8-4aa6-ba70-541c8c6519a8" cx="56.73" cy="58.93" r="0.83"/><ellipse class="b780c9df-c8ad-4ef5-aa46-d5f689834692" cx="27.03" cy="68.11" rx="1.42" ry="2.76" transform="translate(-45.15 80.75) rotate(-78.28)"/><ellipse class="b780c9df-c8ad-4ef5-aa46-d5f689834692" cx="59.79" cy="68.11" rx="2.76" ry="1.42" transform="translate(-12.59 13.56) rotate(-11.72)"/><circle class="bea509ad-12cf-4955-8b1b-83cecc97f539" cx="28.21" cy="60.8" r="4.28"/><circle class="b18e1151-a5c8-4aa6-ba70-541c8c6519a8" cx="29.61" cy="62.2" r="1.58"/><circle class="b18e1151-a5c8-4aa6-ba70-541c8c6519a8" cx="26.34" cy="58.93" r="0.83"/></g></g></svg>