<svg xmlns="http://www.w3.org/2000/svg" width="80.82" height="87.65" viewBox="0 0 80.82 87.65"><defs><style>.e0a7c1a7-7545-4f46-ac7b-bd5f0d0afeaf{fill:#38261f;}.a1686eb9-17f6-44b9-8b79-8f3816d77c59,.a75600f4-2052-4c24-a9c8-9a3d04bc7f69,.b7006b17-711e-41a2-a03e-af302f7583fc,.b8baf408-df27-4369-bc41-7ce56fb75e71{fill:none;}.a1686eb9-17f6-44b9-8b79-8f3816d77c59,.ab93ca0e-4f11-46fc-9f5f-d280838332d2,.b7006b17-711e-41a2-a03e-af302f7583fc,.b8baf408-df27-4369-bc41-7ce56fb75e71{stroke:#211e1d;}.ab93ca0e-4f11-46fc-9f5f-d280838332d2,.b8baf408-df27-4369-bc41-7ce56fb75e71{stroke-miterlimit:10;}.ab93ca0e-4f11-46fc-9f5f-d280838332d2,.b7006b17-711e-41a2-a03e-af302f7583fc,.b8baf408-df27-4369-bc41-7ce56fb75e71{stroke-width:1.98px;}.ab93ca0e-4f11-46fc-9f5f-d280838332d2{fill:#be8e67;}.b218f6c3-fd37-4835-8cc1-6f1689fc8d98{fill:#211e1d;}.b7219496-70eb-4f7d-b08f-668a8575761b{fill:#fff;}.a1686eb9-17f6-44b9-8b79-8f3816d77c59,.a75600f4-2052-4c24-a9c8-9a3d04bc7f69,.b7006b17-711e-41a2-a03e-af302f7583fc{stroke-linecap:round;stroke-linejoin:round;}.a1686eb9-17f6-44b9-8b79-8f3816d77c59{stroke-width:3px;}.a6d18cb0-bf90-45dd-9136-d321dacc697f{fill:#9c643d;}.a54c9ca1-988d-46d7-a409-ac8373e50ba2{fill:#47342d;}.a75600f4-2052-4c24-a9c8-9a3d04bc7f69{stroke:#fff0e9;stroke-width:2px;}</style></defs><title>Asset 2</title><g id="e33263ca-2051-4d8a-aaad-c9ea922703b1" data-name="Layer 2"><g id="b8feac36-f7f8-4e95-b52e-f94517252ced" data-name="Layer 1"><path class="e0a7c1a7-7545-4f46-ac7b-bd5f0d0afeaf" d="M14.47,82A12.11,12.11,0,0,1,2.37,69.85V39.75A38.95,38.95,0,0,1,22.6,5.57,37.74,37.74,0,0,1,40.36,1H41a38.27,38.27,0,0,1,37.49,32.5c0,.13.05.28.07.42a39.44,39.44,0,0,1,.37,5.36V69.85A12.11,12.11,0,0,1,66.82,82Z"/><path class="b8baf408-df27-4369-bc41-7ce56fb75e71" d="M14.47,82A12.11,12.11,0,0,1,2.37,69.85V39.75A38.95,38.95,0,0,1,22.6,5.57,37.74,37.74,0,0,1,40.36,1H41a38.27,38.27,0,0,1,37.49,32.5c0,.13.05.28.07.42a39.44,39.44,0,0,1,.37,5.36V69.85A12.11,12.11,0,0,1,66.82,82Z"/><circle class="ab93ca0e-4f11-46fc-9f5f-d280838332d2" cx="10.11" cy="59.81" r="9.12"/><circle class="ab93ca0e-4f11-46fc-9f5f-d280838332d2" cx="70.71" cy="59.81" r="9.12"/><ellipse class="ab93ca0e-4f11-46fc-9f5f-d280838332d2" cx="40.65" cy="46.93" rx="29.82" ry="39.73"/><circle class="b218f6c3-fd37-4835-8cc1-6f1689fc8d98" cx="55.85" cy="60.27" r="4.28"/><circle class="b7219496-70eb-4f7d-b08f-668a8575761b" cx="57.24" cy="61.67" r="1.58"/><circle class="b7219496-70eb-4f7d-b08f-668a8575761b" cx="53.97" cy="58.4" r="0.83"/><circle class="b218f6c3-fd37-4835-8cc1-6f1689fc8d98" cx="25.45" cy="60.27" r="4.28"/><circle class="b7219496-70eb-4f7d-b08f-668a8575761b" cx="26.84" cy="61.67" r="1.58"/><circle class="b7219496-70eb-4f7d-b08f-668a8575761b" cx="23.57" cy="58.4" r="0.83"/><path class="a1686eb9-17f6-44b9-8b79-8f3816d77c59" d="M44.36,68.87a8.53,8.53,0,0,1-7.42.08"/><path class="a6d18cb0-bf90-45dd-9136-d321dacc697f" d="M43.18,63.25a2.57,2.57,0,0,1-5.06,0Z"/><path class="a54c9ca1-988d-46d7-a409-ac8373e50ba2" d="M75.74,39.45v8.21H64.56A23.74,23.74,0,0,1,42.34,32.29l-.89-2.37-1,2.52A23.75,23.75,0,0,1,18.31,47.66H5.56V39.89a35.8,35.8,0,0,1,9.33-24.08A35,35,0,0,1,24.1,8.57,34.56,34.56,0,0,1,40.38,4.36H41A35.07,35.07,0,0,1,75.33,34.15c0,.13,0,.26.07.39A36,36,0,0,1,75.74,39.45Z"/><path class="b7006b17-711e-41a2-a03e-af302f7583fc" d="M75.74,47.66H64.57A23.75,23.75,0,0,1,42.34,32.29l-.89-2.37-1,2.52A23.77,23.77,0,0,1,18.31,47.66H5.56"/><path class="e0a7c1a7-7545-4f46-ac7b-bd5f0d0afeaf" d="M75.74,39.45v8.21H64.56A23.74,23.74,0,0,1,42.34,32.29l-.89-2.37-1,2.52A23.75,23.75,0,0,1,18.31,47.66H5.56V39.89a35.8,35.8,0,0,1,9.33-24.08A35,35,0,0,1,24.1,8.57,34.56,34.56,0,0,1,40.38,4.36H41A35.07,35.07,0,0,1,75.33,34.15c0,.13,0,.26.07.39A36,36,0,0,1,75.74,39.45Z"/><path class="b7006b17-711e-41a2-a03e-af302f7583fc" d="M75.74,47.66H64.57A23.75,23.75,0,0,1,42.34,32.29l-.89-2.37-1,2.52A23.77,23.77,0,0,1,18.31,47.66H5.56"/><circle class="a75600f4-2052-4c24-a9c8-9a3d04bc7f69" cx="24.27" cy="59.22" r="11.54"/><circle class="a75600f4-2052-4c24-a9c8-9a3d04bc7f69" cx="57.03" cy="59.22" r="11.54"/><path class="a75600f4-2052-4c24-a9c8-9a3d04bc7f69" d="M35.79,59.69a4.87,4.87,0,0,1,4.86-4.86h0a4.86,4.86,0,0,1,4.86,4.86"/><line class="a75600f4-2052-4c24-a9c8-9a3d04bc7f69" x1="12.73" y1="59.22" x2="10.99" y2="59.22"/><line class="a75600f4-2052-4c24-a9c8-9a3d04bc7f69" x1="70.31" y1="59.23" x2="68.57" y2="59.23"/></g></g></svg>