<svg xmlns="http://www.w3.org/2000/svg" width="95.02" height="86.19" viewBox="0 0 95.02 86.19"><defs><style>.a6c4ab43-682a-461d-a8a6-97c44dd574ed,.b6f91b7e-0248-4a1e-abfa-95c263adc157,.be146578-edaf-4256-a8ab-a6f2c220959b{fill:#47342d;}.a05d0ed1-c4e1-4363-b9cd-49343b241f55,.a6c4ab43-682a-461d-a8a6-97c44dd574ed,.aa60852c-75b7-4055-a891-39c02095770e,.abf11e6b-8630-4a62-90af-68ab3720ffb1,.b6f1cef2-f59f-44c8-bdd7-07cfed0547dd,.b6f91b7e-0248-4a1e-abfa-95c263adc157,.e3ad6470-12bb-4b50-9a38-0f00aeb280c9{stroke:#211e1d;}.a6c4ab43-682a-461d-a8a6-97c44dd574ed,.b6f1cef2-f59f-44c8-bdd7-07cfed0547dd,.b6f91b7e-0248-4a1e-abfa-95c263adc157{stroke-miterlimit:10;}.a6c4ab43-682a-461d-a8a6-97c44dd574ed{stroke-width:1.92px;}.a05d0ed1-c4e1-4363-b9cd-49343b241f55,.aa60852c-75b7-4055-a891-39c02095770e,.b6f1cef2-f59f-44c8-bdd7-07cfed0547dd,.b6f91b7e-0248-4a1e-abfa-95c263adc157{stroke-width:1.98px;}.b6f1cef2-f59f-44c8-bdd7-07cfed0547dd{fill:#be8e67;}.a7fbc0b0-26fa-4036-b460-5af7bf9cc78b{fill:#211e1d;}.a9a20e13-9186-4747-8595-cdedca8a9130{fill:#fff;}.b8c5df42-aecc-4070-b349-cb92bbd070aa{fill:#fe7171;}.aa60852c-75b7-4055-a891-39c02095770e,.abf11e6b-8630-4a62-90af-68ab3720ffb1,.e50ec797-d903-4755-89fb-631581cdc4c6{fill:none;}.a05d0ed1-c4e1-4363-b9cd-49343b241f55,.aa60852c-75b7-4055-a891-39c02095770e,.abf11e6b-8630-4a62-90af-68ab3720ffb1,.e3ad6470-12bb-4b50-9a38-0f00aeb280c9,.e50ec797-d903-4755-89fb-631581cdc4c6{stroke-linecap:round;stroke-linejoin:round;}.abf11e6b-8630-4a62-90af-68ab3720ffb1{stroke-width:1.2px;}.e50ec797-d903-4755-89fb-631581cdc4c6{stroke:#5a012c;stroke-width:4.73px;}.ea8d0a49-26a8-4eab-886a-45ba279e6a8e{fill:#9c643d;}.f2cd9713-c53d-478b-9882-2f8b19ac1ced{fill:#fe9696;}.e3ad6470-12bb-4b50-9a38-0f00aeb280c9{fill:#f70f47;stroke-width:1.65px;}.a05d0ed1-c4e1-4363-b9cd-49343b241f55{fill:#ebba37;}</style></defs><title>Asset 3</title><g id="ba166fe0-8abc-405b-a758-7cbbb0e41d73" data-name="Layer 2"><g id="b60c1520-7e63-4d0b-9805-200b02778227" data-name="Layer 1"><path class="a6c4ab43-682a-461d-a8a6-97c44dd574ed" d="M22.87,40.34c-5.67.83-15.64,8.9-13.85,21C10.08,68.53,6.6,72.74,2.24,74a1.72,1.72,0,0,0-.51,3.1c11.68,7.81,37.41,8.54,41.63-12.14C49,37.14,22.87,40.34,22.87,40.34Z"/><circle class="b6f91b7e-0248-4a1e-abfa-95c263adc157" cx="53.14" cy="38.2" r="37.21"/><path class="b6f1cef2-f59f-44c8-bdd7-07cfed0547dd" d="M19.42,52.71H30.21a0,0,0,0,1,0,0V66.07a0,0,0,0,1,0,0H19.42a6.68,6.68,0,0,1-6.68-6.68v0a6.68,6.68,0,0,1,6.68-6.68Z"/><path class="b6f1cef2-f59f-44c8-bdd7-07cfed0547dd" d="M83.24,52.71H94a0,0,0,0,1,0,0V66.07a0,0,0,0,1,0,0H83.24a6.68,6.68,0,0,1-6.68-6.68v0A6.68,6.68,0,0,1,83.24,52.71Z" transform="translate(170.59 118.78) rotate(180)"/><circle class="a7fbc0b0-26fa-4036-b460-5af7bf9cc78b" cx="68.34" cy="59.85" r="4.28"/><circle class="a9a20e13-9186-4747-8595-cdedca8a9130" cx="69.73" cy="61.24" r="1.58"/><circle class="a9a20e13-9186-4747-8595-cdedca8a9130" cx="66.46" cy="57.97" r="0.83"/><ellipse class="b8c5df42-aecc-4070-b349-cb92bbd070aa" cx="36.76" cy="67.16" rx="1.42" ry="2.76" transform="translate(-36.46 89.52) rotate(-78.28)"/><ellipse class="b8c5df42-aecc-4070-b349-cb92bbd070aa" cx="69.52" cy="67.16" rx="2.76" ry="1.42" transform="translate(-12.19 15.52) rotate(-11.72)"/><path class="abf11e6b-8630-4a62-90af-68ab3720ffb1" d="M64.47,53.93a4.29,4.29,0,0,1,7.75,0"/><circle class="a7fbc0b0-26fa-4036-b460-5af7bf9cc78b" cx="37.94" cy="59.85" r="4.28"/><circle class="a9a20e13-9186-4747-8595-cdedca8a9130" cx="39.34" cy="61.24" r="1.58"/><circle class="a9a20e13-9186-4747-8595-cdedca8a9130" cx="36.07" cy="57.97" r="0.83"/><path class="abf11e6b-8630-4a62-90af-68ab3720ffb1" d="M34.07,53.93a4.29,4.29,0,0,1,7.75,0"/><path class="e50ec797-d903-4755-89fb-631581cdc4c6" d="M57.65,68.45a7.91,7.91,0,0,1-3.78.89,8.11,8.11,0,0,1-3.64-.81"/><path class="a7fbc0b0-26fa-4036-b460-5af7bf9cc78b" d="M60.8,66.07a.85.85,0,0,1,.82,1C61,70,57.8,72.23,53.94,72.23S46.87,70,46.26,67.09a.85.85,0,0,1,.83-1Z"/><path class="ea8d0a49-26a8-4eab-886a-45ba279e6a8e" d="M56.85,62.82c0,.87-1.31,1.58-2.93,1.58S51,63.69,51,62.82Z"/><path class="be146578-edaf-4256-a8ab-a6f2c220959b" d="M19.19,48.13C47.67,52.92,56.1,27.29,80.37,22.89L62.53,12.43,27.8,17,19.19,30.18Z"/><path class="be146578-edaf-4256-a8ab-a6f2c220959b" d="M64.06,11.54c0,14.9,6.48,36.91,23.17,36.91l-.31-19.29Z"/><path class="aa60852c-75b7-4055-a891-39c02095770e" d="M20.6,48.34c21.34,2.91,31.24-11.58,45.9-20.15,2.92,9.84,9.17,19.35,19.29,20.2"/><path class="b6f1cef2-f59f-44c8-bdd7-07cfed0547dd" d="M53.14,85.2h0A32.16,32.16,0,0,1,21,53.05v-22L57.65,18.65,85.3,31.06v22A32.16,32.16,0,0,1,53.14,85.2Z"/><circle class="a7fbc0b0-26fa-4036-b460-5af7bf9cc78b" cx="68.34" cy="59.85" r="4.28"/><circle class="a9a20e13-9186-4747-8595-cdedca8a9130" cx="69.73" cy="61.24" r="1.58"/><circle class="a9a20e13-9186-4747-8595-cdedca8a9130" cx="66.46" cy="57.97" r="0.83"/><ellipse class="f2cd9713-c53d-478b-9882-2f8b19ac1ced" cx="36.76" cy="67.57" rx="1.42" ry="2.76" transform="translate(-36.87 89.84) rotate(-78.28)"/><ellipse class="f2cd9713-c53d-478b-9882-2f8b19ac1ced" cx="69.52" cy="67.57" rx="2.76" ry="1.42" transform="translate(-12.27 15.53) rotate(-11.72)"/><circle class="a7fbc0b0-26fa-4036-b460-5af7bf9cc78b" cx="37.94" cy="59.85" r="4.28"/><circle class="a9a20e13-9186-4747-8595-cdedca8a9130" cx="39.34" cy="61.24" r="1.58"/><circle class="a9a20e13-9186-4747-8595-cdedca8a9130" cx="36.07" cy="57.97" r="0.83"/><path class="e50ec797-d903-4755-89fb-631581cdc4c6" d="M57.65,68.45a7.91,7.91,0,0,1-3.78.89,8.11,8.11,0,0,1-3.64-.81"/><path class="a7fbc0b0-26fa-4036-b460-5af7bf9cc78b" d="M60.8,66.07a.85.85,0,0,1,.82,1C61,70,57.8,72.23,53.94,72.23S46.87,70,46.26,67.09a.85.85,0,0,1,.83-1Z"/><path class="ea8d0a49-26a8-4eab-886a-45ba279e6a8e" d="M56.85,62.82c0,.87-1.31,1.58-2.93,1.58S51,63.69,51,62.82Z"/><path class="be146578-edaf-4256-a8ab-a6f2c220959b" d="M19.19,48.13C47,60.52,58.21,24.47,80.37,22.89L62.53,12.43,27.8,17,19.19,30.18Z"/><path class="be146578-edaf-4256-a8ab-a6f2c220959b" d="M64.06,11.54c0,21.52,6.48,36.91,23.17,36.91l-.31-19.29Z"/><path class="aa60852c-75b7-4055-a891-39c02095770e" d="M20.6,48.34c24.51,8.81,31.24-11.58,45.9-20.15,0,13.76,9.15,20.2,19.29,20.2"/><path class="e3ad6470-12bb-4b50-9a38-0f00aeb280c9" d="M31.32,37a6.67,6.67,0,0,0-1.27.13,6.23,6.23,0,1,0-10.86-4.29,6.23,6.23,0,1,0-8,9.21,6.23,6.23,0,1,0,7.66,9.28,6.23,6.23,0,0,0,12.44-.43,6.3,6.3,0,0,0-.17-1.44h.17a6.24,6.24,0,1,0,0-12.47Z"/><circle class="a05d0ed1-c4e1-4363-b9cd-49343b241f55" cx="21.65" cy="41.89" r="3.77"/></g></g></svg>