<svg xmlns="http://www.w3.org/2000/svg" width="112.6" height="106.1" viewBox="0 0 112.6 106.1"><defs><style>.bbb5b758-8ac4-4e1b-89e2-df19c67b6aac{fill:#5a012c;}.b23a2500-96d7-452a-9b5c-25739ffac838{fill:#fff;}.a544133f-39fd-4d9b-acc4-4b9a246423f9{fill:#fe7171;}.a7ca7996-9cb2-4309-8788-006c9c44f89c,.aa58a116-1124-4e54-b37e-c6ad7b322f96,.b5deea58-0807-458c-9d6a-e056cf5f4afe,.e62e1ac8-da07-40c8-915b-85c82471b883{fill:none;}.a7ca7996-9cb2-4309-8788-006c9c44f89c,.b8edd1ce-ec6e-4d86-b703-7f633cf74b08,.e62e1ac8-da07-40c8-915b-85c82471b883{stroke:#cc3200;}.a7ca7996-9cb2-4309-8788-006c9c44f89c,.aa58a116-1124-4e54-b37e-c6ad7b322f96,.aa687dc8-e068-43d9-aafc-3e4982f5011f,.b5deea58-0807-458c-9d6a-e056cf5f4afe,.b66c5550-dfe8-41b3-9b48-4ea4f0601481,.b8edd1ce-ec6e-4d86-b703-7f633cf74b08,.e62e1ac8-da07-40c8-915b-85c82471b883{stroke-linecap:round;stroke-linejoin:round;}.a7ca7996-9cb2-4309-8788-006c9c44f89c{stroke-width:1.24px;}.b5deea58-0807-458c-9d6a-e056cf5f4afe{stroke:#5a012c;stroke-width:4.73px;}.a34f37a8-60a3-42ae-a082-c0d9b8f9e370,.b079d4a1-b62e-4ca3-b16e-4e2e9ec53ac1,.b66c5550-dfe8-41b3-9b48-4ea4f0601481,.b8edd1ce-ec6e-4d86-b703-7f633cf74b08{fill:#e94e1b;}.a8428bb5-fef6-4ee9-a596-471367a6b06b,.aa58a116-1124-4e54-b37e-c6ad7b322f96,.aa687dc8-e068-43d9-aafc-3e4982f5011f,.b66c5550-dfe8-41b3-9b48-4ea4f0601481,.b8edd1ce-ec6e-4d86-b703-7f633cf74b08,.e62e1ac8-da07-40c8-915b-85c82471b883{stroke-width:1.98px;}.a34f37a8-60a3-42ae-a082-c0d9b8f9e370,.a8428bb5-fef6-4ee9-a596-471367a6b06b,.aa58a116-1124-4e54-b37e-c6ad7b322f96,.aa687dc8-e068-43d9-aafc-3e4982f5011f,.b66c5550-dfe8-41b3-9b48-4ea4f0601481,.e6ea5ce7-ccc7-4736-8ba9-d0c70c14f4f0{stroke:#211e1d;}.a34f37a8-60a3-42ae-a082-c0d9b8f9e370,.a8428bb5-fef6-4ee9-a596-471367a6b06b,.e6ea5ce7-ccc7-4736-8ba9-d0c70c14f4f0{stroke-miterlimit:10;}.a34f37a8-60a3-42ae-a082-c0d9b8f9e370{stroke-width:1.91px;}.a8428bb5-fef6-4ee9-a596-471367a6b06b,.e6ea5ce7-ccc7-4736-8ba9-d0c70c14f4f0{fill:#fadcbc;}.e6ea5ce7-ccc7-4736-8ba9-d0c70c14f4f0{stroke-width:1.88px;}.aa687dc8-e068-43d9-aafc-3e4982f5011f{fill:#fff0e9;}</style></defs><title>Asset 4</title><g id="a5f0e910-84cf-4dc7-bfad-24ea7547f9fc" data-name="Layer 2"><g id="ecefebc4-7e00-4481-b69d-73d4a7612c47" data-name="Layer 1"><circle class="bbb5b758-8ac4-4e1b-89e2-df19c67b6aac" cx="72.1" cy="75.31" r="4.28"/><circle class="b23a2500-96d7-452a-9b5c-25739ffac838" cx="73.49" cy="76.7" r="1.58"/><circle class="b23a2500-96d7-452a-9b5c-25739ffac838" cx="70.22" cy="73.43" r="0.83"/><ellipse class="a544133f-39fd-4d9b-acc4-4b9a246423f9" cx="40.52" cy="82.62" rx="1.42" ry="2.76" transform="translate(-48.61 105.51) rotate(-78.28)"/><ellipse class="a544133f-39fd-4d9b-acc4-4b9a246423f9" cx="73.28" cy="82.62" rx="2.76" ry="1.42" transform="translate(-15.25 16.6) rotate(-11.72)"/><path class="a7ca7996-9cb2-4309-8788-006c9c44f89c" d="M68.22,69.39a4.28,4.28,0,0,1,7.75,0"/><circle class="bbb5b758-8ac4-4e1b-89e2-df19c67b6aac" cx="41.7" cy="75.31" r="4.28"/><circle class="b23a2500-96d7-452a-9b5c-25739ffac838" cx="43.09" cy="76.7" r="1.58"/><circle class="b23a2500-96d7-452a-9b5c-25739ffac838" cx="39.82" cy="73.43" r="0.83"/><path class="a7ca7996-9cb2-4309-8788-006c9c44f89c" d="M37.82,69.39a4.29,4.29,0,0,1,7.76,0"/><path class="b5deea58-0807-458c-9d6a-e056cf5f4afe" d="M61.41,83.91A8.57,8.57,0,0,1,54,84"/><path class="bbb5b758-8ac4-4e1b-89e2-df19c67b6aac" d="M64.55,81.53a.85.85,0,0,1,.83,1c-.62,2.91-3.82,5.13-7.68,5.13S50.63,85.46,50,82.55a.85.85,0,0,1,.82-1Z"/><path class="a544133f-39fd-4d9b-acc4-4b9a246423f9" d="M60.6,78.28c0,.87-1.31,1.58-2.92,1.58s-2.93-.71-2.93-1.58Z"/><path class="b079d4a1-b62e-4ca3-b16e-4e2e9ec53ac1" d="M102.93,61a11.52,11.52,0,0,1-23,1.29,21.72,21.72,0,0,1-2.43.13A23.49,23.49,0,0,1,61,55.6a29.71,29.71,0,0,1-16.34,4.88,30.11,30.11,0,0,1-6.2-.64,16.76,16.76,0,0,1-33-4.13c0-.57,0-1.13,6.76-12.36H96.13S102.93,58.35,102.93,61Z"/><path class="e62e1ac8-da07-40c8-915b-85c82471b883" d="M22.24,72.47A16.77,16.77,0,0,0,38.48,59.84a30.09,30.09,0,0,0,6.19.64A29.66,29.66,0,0,0,61,55.6a23.53,23.53,0,0,0,16.53,6.77c.82,0,1.63,0,2.44-.12A11.51,11.51,0,0,0,91.42,72.47"/><path class="b8edd1ce-ec6e-4d86-b703-7f633cf74b08" d="M68.48,48.63a29.8,29.8,0,0,1-41.6,6"/><path class="a34f37a8-60a3-42ae-a082-c0d9b8f9e370" d="M111.65,63.29A21.12,21.12,0,0,0,100.38,44.6,23.55,23.55,0,0,0,70.72,16.3,29.77,29.77,0,0,0,14.9,30.73a29,29,0,0,0,.3,4.2,24.42,24.42,0,0,0,4.21,45.89,14.16,14.16,0,1,0,20.35-3.95A24.43,24.43,0,0,0,49.62,60.1,29.59,29.59,0,0,0,61,55.62,23.51,23.51,0,0,0,69.52,61a21.85,21.85,0,0,0-.13,2.3,21,21,0,0,0,4.69,13.27,14.16,14.16,0,1,0,22,11.75,14.38,14.38,0,0,0-.72-4.47A21.13,21.13,0,0,0,111.65,63.29Z"/><path class="a8428bb5-fef6-4ee9-a596-471367a6b06b" d="M25.76,69.78H36.56a0,0,0,0,1,0,0V83.15a0,0,0,0,1,0,0H25.76a6.68,6.68,0,0,1-6.68-6.68v0A6.68,6.68,0,0,1,25.76,69.78Z"/><path class="a8428bb5-fef6-4ee9-a596-471367a6b06b" d="M82.59,69.78H93.38a0,0,0,0,1,0,0V83.15a0,0,0,0,1,0,0H82.59a6.68,6.68,0,0,1-6.68-6.68v0A6.68,6.68,0,0,1,82.59,69.78Z" transform="translate(169.28 152.93) rotate(-180)"/><path class="e6ea5ce7-ccc7-4736-8ba9-d0c70c14f4f0" d="M56.9,105.16h0c-14.77,0-26.75-8.63-26.75-26.74V46.52H83.64v31.9C83.64,97.06,71.67,105.16,56.9,105.16Z"/><circle class="bbb5b758-8ac4-4e1b-89e2-df19c67b6aac" cx="72.1" cy="75.31" r="4.28"/><circle class="b23a2500-96d7-452a-9b5c-25739ffac838" cx="73.49" cy="76.7" r="1.58"/><circle class="b23a2500-96d7-452a-9b5c-25739ffac838" cx="70.22" cy="73.43" r="0.83"/><ellipse class="a544133f-39fd-4d9b-acc4-4b9a246423f9" cx="40.52" cy="82.62" rx="1.42" ry="2.76" transform="translate(-48.61 105.51) rotate(-78.28)"/><ellipse class="a544133f-39fd-4d9b-acc4-4b9a246423f9" cx="73.28" cy="82.62" rx="2.76" ry="1.42" transform="translate(-15.25 16.6) rotate(-11.72)"/><circle class="bbb5b758-8ac4-4e1b-89e2-df19c67b6aac" cx="41.7" cy="75.31" r="4.28"/><circle class="b23a2500-96d7-452a-9b5c-25739ffac838" cx="43.09" cy="76.7" r="1.58"/><circle class="b23a2500-96d7-452a-9b5c-25739ffac838" cx="39.82" cy="73.43" r="0.83"/><path class="b5deea58-0807-458c-9d6a-e056cf5f4afe" d="M61.41,83.91A8.57,8.57,0,0,1,54,84"/><path class="bbb5b758-8ac4-4e1b-89e2-df19c67b6aac" d="M64.55,81.53a.85.85,0,0,1,.83,1c-.62,2.91-3.82,5.13-7.68,5.13S50.63,85.46,50,82.55a.85.85,0,0,1,.82-1Z"/><path class="a544133f-39fd-4d9b-acc4-4b9a246423f9" d="M60.6,78.28c0,.87-1.31,1.58-2.92,1.58s-2.93-.71-2.93-1.58Z"/><path class="b079d4a1-b62e-4ca3-b16e-4e2e9ec53ac1" d="M102.93,61c0,6.36-5.15,9.54-11.52,9.54C85.5,70.49,80.62,68,80,62.24a21.72,21.72,0,0,1-2.43.13A23.49,23.49,0,0,1,61,55.6a29.71,29.71,0,0,1-16.34,4.88,30.11,30.11,0,0,1-6.2-.64c-1.83,7.26-8.41,10.65-16.24,10.65C13,70.49,5.48,65,5.48,55.71c0-.57,0-1.13,6.76-12.36H96.13S102.93,58.35,102.93,61Z"/><path class="aa58a116-1124-4e54-b37e-c6ad7b322f96" d="M21.17,70.49c10.56,1.56,15.47-3.4,17.31-10.65a30.09,30.09,0,0,0,6.19.64A29.66,29.66,0,0,0,61,55.6a23.53,23.53,0,0,0,16.53,6.77c.82,0,1.63,0,2.44-.12,0,6.24,3.66,9.14,11.44,8.24"/><path class="b66c5550-dfe8-41b3-9b48-4ea4f0601481" d="M68.48,48.63a29.8,29.8,0,0,1-41.6,6"/><circle class="aa687dc8-e068-43d9-aafc-3e4982f5011f" cx="89.05" cy="82.72" r="2.94"/><circle class="aa687dc8-e068-43d9-aafc-3e4982f5011f" cx="24.74" cy="82.72" r="2.94"/></g></g></svg>