<svg xmlns="http://www.w3.org/2000/svg" width="20.335" height="28" viewBox="0 0 20.335 28"><g transform="translate(0 -32.005)" fill="#fff"><path d="M 12.72662544250488 59.00481033325195 C 12.13314533233643 59.00484085083008 11.584885597229 58.65889358520508 11.32986545562744 58.12347030639648 L 8.36689567565918 51.89215087890625 L 7.702995300292969 50.49591064453125 L 6.701805591583252 51.67398071289062 L 1.929555535316467 57.28932189941406 C 1.829365491867065 57.40739059448242 1.683325529098511 57.47478103637695 1.528395533561707 57.47478103637695 C 1.466135501861572 57.47478103637695 1.404005527496338 57.46365356445312 1.343735575675964 57.44170379638672 C 1.128125548362732 57.36341094970703 0.9999955296516418 57.15738296508789 0.9999955296516418 56.89020156860352 L 0.9999955296516418 33.53290176391602 C 0.9999955296516418 33.32472229003906 1.121735572814941 33.13521194458008 1.31013548374176 33.05010223388672 C 1.376075506210327 33.02069091796875 1.450395464897156 33.00481033325195 1.526775479316711 33.00481033325195 C 1.656155467033386 33.00481033325195 1.779755473136902 33.05106353759766 1.874805569648743 33.13505172729492 L 19.12416458129883 48.40560150146484 L 19.14650535583496 48.42538070678711 L 19.16998481750488 48.44379043579102 C 19.36996459960938 48.6005973815918 19.35006141662598 48.85910415649414 19.31017303466797 49.0240478515625 C 19.2248592376709 49.20918273925781 19.03684043884277 49.33122253417969 18.83129501342773 49.33122253417969 L 12.15014553070068 49.33122253417969 L 10.56639575958252 49.33122253417969 L 11.24727535247803 50.76113128662109 L 14.12016582489014 56.79452133178711 C 14.48632526397705 57.56341171264648 14.15846538543701 58.48732376098633 13.38933563232422 58.85412216186523 C 13.17958545684814 58.95404052734375 12.95648574829102 59.00481033325195 12.72662544250488 59.00481033325195 Z" stroke="none"/><path d="M 12.72661590576172 58.00481033325195 C 12.80649566650391 58.00481033325195 12.88489532470703 57.98676300048828 12.95887565612793 57.95151138305664 C 13.2305850982666 57.82193374633789 13.34652519226074 57.49581146240234 13.21729564666748 57.22444152832031 L 8.98265552520752 48.33122253417969 L 17.5315113067627 48.33122253417969 L 1.999995470046997 34.58143997192383 L 1.999995470046997 55.66225051879883 L 7.942195415496826 48.67026138305664 L 12.23268508911133 57.69346237182617 C 12.3420352935791 57.92303085327148 12.55951595306396 58.00482177734375 12.72658538818359 58.00481033325195 L 12.72661590576172 58.00481033325195 M 12.72666454315186 60.00481796264648 C 11.77549648284912 60.00485610961914 10.86324977874756 59.46929931640625 10.42704582214355 58.55349349975586 L 7.46379566192627 52.32157135009766 L 2.691545486450195 57.93691253662109 C 2.277394533157349 58.42495346069336 1.600796461105347 58.59960556030273 1.00147557258606 58.38130187988281 C 0.3996555209159851 58.16280364990234 -4.483032171265222e-06 57.59013366699219 -4.483032171265222e-06 56.89020156860352 L -4.483032171265222e-06 33.53290176391602 C -4.483032171265222e-06 32.9323616027832 0.3519355058670044 32.38565063476562 0.8984555006027222 32.13877105712891 C 1.447585582733154 31.89380073547363 2.088975667953491 31.98987770080566 2.536925554275513 32.38565063476562 L 19.78701591491699 47.65685272216797 C 20.32341575622559 48.07744216918945 20.43159484863281 48.74556350708008 20.25978469848633 49.34368133544922 C 20.03511619567871 49.9382438659668 19.4663257598877 50.33122253417969 18.83129501342773 50.33122253417969 L 12.15014553070068 50.33122253417969 L 15.02303504943848 56.3646125793457 C 15.62726593017578 57.63340377807617 15.08864593505859 59.151611328125 13.81979560852051 59.75673294067383 C 13.46641254425049 59.92507934570312 13.09360027313232 60.00480270385742 12.72666454315186 60.00481796264648 Z" stroke="none" fill="#243742"/></g></svg>