<svg xmlns="http://www.w3.org/2000/svg" xmlns:xlink="http://www.w3.org/1999/xlink" width="124" height="124" viewBox="0 0 124 124"><defs><clipPath id="a"><circle cx="60" cy="60" r="60" transform="translate(-21666 23297)" fill="#d0cbb1"/></clipPath></defs><g transform="translate(21668 -23295)"><g transform="translate(-21666 23297)" fill="#aad3bb" stroke="#2b3640" stroke-width="2"><circle cx="60" cy="60" r="60" stroke="none"/><circle cx="60" cy="60" r="61" fill="none"/></g><g clip-path="url(#a)"><rect width="80" height="80" transform="translate(-21646 23339)" fill="#384655"/><ellipse cx="14" cy="17" rx="14" ry="17" transform="translate(-21630 23311)" fill="#384655"/><ellipse cx="14" cy="17" rx="14" ry="17" transform="translate(-21610 23311)" fill="#384655"/><ellipse cx="12" cy="14" rx="12" ry="14" transform="translate(-21590 23326)" fill="#384655"/><ellipse cx="12" cy="14" rx="12" ry="14" transform="translate(-21646 23326)" fill="#384655"/><ellipse cx="6" cy="8" rx="6" ry="8" transform="translate(-21640 23332)" fill="#fcf5f2"/><ellipse cx="6" cy="8" rx="6" ry="8" transform="translate(-21583 23332)" fill="#fcf5f2"/><ellipse cx="6" cy="8" rx="6" ry="8" transform="translate(-21602 23320)" fill="#fcf5f2"/><ellipse cx="6" cy="8" rx="6" ry="8" transform="translate(-21622 23320)" fill="#fcf5f2"/><path d="M14.088,13.085a10,10,0,0,1,16.824,0L35.1,19.592A10,10,0,0,1,26.683,35H18.317A10,10,0,0,1,9.9,19.592Z" transform="translate(-21628 23331)" fill="#fcf5f2"/></g></g></svg>