<svg xmlns="http://www.w3.org/2000/svg" width="1049" height="749" viewBox="0 0 1049 749"><g transform="translate(-1437 -953)"><rect width="1049" height="749" transform="translate(1437 953)" fill="#e8e6db"/><g transform="translate(20 11)"><g transform="translate(1588 1207)" fill="#f9f7f3" stroke="#f9f8f4" stroke-width="1"><circle cx="141.5" cy="141.5" r="141.5" stroke="none"/><circle cx="141.5" cy="141.5" r="141" fill="none"/></g><g transform="translate(1976 1269)" fill="#f9f7f3"><path d="M 284.342529296875 275.5 L 34.65744781494141 275.5 C 31.08140754699707 275.5 27.61363792419434 274.5517883300781 24.62906074523926 272.7578735351562 C 21.80940818786621 271.0630493164062 19.43686866760254 268.6385803222656 17.76794624328613 265.7465515136719 C 16.09902381896973 262.8545227050781 15.18698501586914 259.5872192382812 15.13040828704834 256.2979125976562 C 15.07056140899658 252.8162078857422 15.9846773147583 249.3392791748047 17.77398490905762 246.2430877685547 L 142.6164855957031 30.21462821960449 C 144.4045562744141 27.12051200866699 146.9587097167969 24.5936279296875 150.0028381347656 22.90712738037109 C 152.8788757324219 21.31378173828125 156.1629486083984 20.4715518951416 159.4999389648438 20.4715518951416 C 162.8369903564453 20.4715518951416 166.1210174560547 21.31378173828125 168.9971008300781 22.90712738037109 C 172.0411834716797 24.5936279296875 174.5953369140625 27.12051200866699 176.3834075927734 30.21462821960449 L 301.2260131835938 246.2430877685547 C 303.0153198242188 249.3392791748047 303.929443359375 252.8162078857422 303.8695678710938 256.2979125976562 C 303.81298828125 259.5872192382812 302.9009399414062 262.8545227050781 301.2320251464844 265.7465515136719 C 299.5631103515625 268.6385803222656 297.1905517578125 271.0630493164062 294.3709106445312 272.7578735351562 C 291.3863220214844 274.5517883300781 287.9185485839844 275.5 284.342529296875 275.5 Z" stroke="none"/><path d="M 159.4999389648438 20.97152709960938 C 152.6343688964844 20.97152709960938 146.4846343994141 24.5203857421875 143.0493621826172 30.46475219726562 L 18.20687866210938 246.4932403564453 C 14.76922607421875 252.4418640136719 14.76702880859375 259.5458984375 18.20101928710938 265.4966430664062 C 21.635009765625 271.4473571777344 27.7869873046875 275 34.657470703125 275 L 284.342529296875 275 C 291.2129821777344 275 297.3648986816406 271.4473571777344 300.7989501953125 265.4966430664062 C 304.2329711914062 259.5458984375 304.2308044433594 252.4418640136719 300.7931518554688 246.4932403564453 L 175.9505157470703 30.46475219726562 C 172.5152587890625 24.5203857421875 166.3655242919922 20.97152709960938 159.4999389648438 20.97152709960938 M 159.4999542236328 19.97152709960938 C 166.2332000732422 19.97152709960938 172.9664306640625 23.30245971679688 176.8163299560547 29.96438598632812 L 301.658935546875 245.9928894042969 C 309.3642272949219 259.3262023925781 299.7421875 276 284.342529296875 276 L 34.657470703125 276 C 19.25778198242188 276 9.6357421875 259.3262023925781 17.341064453125 245.9928894042969 L 142.1835632324219 29.96438598632812 C 146.0334777832031 23.30245971679688 152.7667236328125 19.97152709960938 159.4999542236328 19.97152709960938 Z" stroke="none" fill="#f9f8f4"/></g><g transform="translate(1888 1061)" fill="#f9f7f3" stroke="#f9f8f4" stroke-width="1"><rect width="146" height="146" rx="20" stroke="none"/><rect x="0.5" y="0.5" width="145" height="145" rx="19.5" fill="none"/></g></g></g></svg>