<svg xmlns="http://www.w3.org/2000/svg" xmlns:xlink="http://www.w3.org/1999/xlink" width="380.747" height="194.019" viewBox="0 0 380.747 194.019"><defs><filter id="a" x="16.083" y="119.019" width="364.664" height="75" filterUnits="userSpaceOnUse"><feOffset dx="16" dy="8" input="SourceAlpha"/><feGaussianBlur result="b"/><feFlood flood-color="#8fd6b7"/><feComposite operator="in" in2="b"/><feComposite in="SourceGraphic"/></filter><filter id="c" x="0" y="0" width="103.766" height="99.03" filterUnits="userSpaceOnUse"><feOffset dx="8" dy="8" input="SourceAlpha"/><feGaussianBlur result="d"/><feFlood flood-color="#8fd6b7"/><feComposite operator="in" in2="d"/><feComposite in="SourceGraphic"/></filter></defs><g transform="translate(-4484.917 1556.538)"><g transform="translate(4502 -1436.519)"><g transform="matrix(1, 0, 0, 1, -17.08, -120.02)" filter="url(#a)"><path d="M0,0H65V65H0ZM70.416,0h65V65h-65Zm70.416,0h65V65h-65Zm70.416,0h65V65h-65Zm70.416,0h65V65h-65Z" transform="translate(17.08 120.02)" fill="#8fd6b7" stroke="#283640" stroke-width="2"/></g><path d="M37.15,49.038l9.885-2.505,4.13,12.729ZM59.9,32.585H42.5L37.15,16.2,31.8,32.585H14.4L28.483,42.741,23.134,59.127,37.217,48.971l8.667-6.229Zm47.666,16.453,9.885-2.505,4.13,12.729Zm22.75-16.453h-17.4L107.566,16.2l-5.349,16.385h-17.4L98.9,42.741,93.55,59.127l14.083-10.156,8.667-6.229Zm47.666,16.453,9.885-2.505L192,59.262Zm22.75-16.453h-17.4L177.982,16.2l-5.349,16.385h-17.4l14.083,10.156-5.349,16.385L178.05,48.971l8.667-6.229ZM248.4,49.038l9.885-2.505,4.13,12.729Zm22.75-16.453h-17.4L248.4,16.2l-5.349,16.385h-17.4l14.083,10.156-5.349,16.385L248.468,48.97l8.667-6.229Zm47.666,16.453,9.885-2.505,4.13,12.729Zm22.75-16.453h-17.4L318.814,16.2l-5.349,16.385h-17.4l14.083,10.156L304.8,59.127l14.083-10.156,8.667-6.229Z" transform="translate(-4.65 -5.231)" fill="#fff"/></g><g transform="translate(4488 -1553.3)"><path d="M178.162,300.7h37.846v7.046h-14.9v39.717H192.94V307.746H178.1Zm36.225,12.906h6.983v6.547h.125a8.226,8.226,0,0,1,1.309-2.681,10.365,10.365,0,0,1,2.307-2.369,10.2,10.2,0,0,1,2.993-1.746,8.711,8.711,0,0,1,3.3-.686c.873,0,1.5.062,1.808.062a5.458,5.458,0,0,0,1,.125v7.17a12.616,12.616,0,0,0-1.621-.249,14.192,14.192,0,0,0-1.621-.125,8.652,8.652,0,0,0-3.554.748,9.008,9.008,0,0,0-2.93,2.182,11.823,11.823,0,0,0-2,3.616,15.26,15.26,0,0,0-.748,4.988v16.086h-7.482Zm54.119,33.856H261.15v-4.739h-.125a10.446,10.446,0,0,1-4.115,4.115,10.86,10.86,0,0,1-5.549,1.559c-4.427,0-7.669-1.06-9.664-3.3-2-2.182-2.993-5.549-2.993-9.976V313.606h7.482v20.762c0,2.993.561,5.113,1.746,6.3a6.155,6.155,0,0,0,4.8,1.87,9.2,9.2,0,0,0,3.928-.748,6.775,6.775,0,0,0,2.556-1.933,7.584,7.584,0,0,0,1.434-2.93,13.844,13.844,0,0,0,.436-3.679v-19.64h7.482v33.856Zm12.719-10.849a5.885,5.885,0,0,0,2.494,4.614,9.819,9.819,0,0,0,5.175,1.309,17.129,17.129,0,0,0,2.369-.187,10.439,10.439,0,0,0,2.494-.624,4.387,4.387,0,0,0,1.933-1.372,3.193,3.193,0,0,0,.686-2.307,3.355,3.355,0,0,0-1.06-2.369,8.834,8.834,0,0,0-2.494-1.5,21.623,21.623,0,0,0-3.492-.935c-1.309-.249-2.619-.561-3.99-.873s-2.743-.686-4.053-1.122a11.616,11.616,0,0,1-3.492-1.808,7.776,7.776,0,0,1-2.432-2.868,8.963,8.963,0,0,1-.935-4.3,7.373,7.373,0,0,1,1.372-4.614,9.943,9.943,0,0,1,3.429-2.993,15.564,15.564,0,0,1,4.614-1.621,26.416,26.416,0,0,1,4.8-.436,21.449,21.449,0,0,1,4.988.561,12.609,12.609,0,0,1,4.3,1.808,9.878,9.878,0,0,1,3.18,3.242,11.23,11.23,0,0,1,1.621,4.8h-7.794a4.8,4.8,0,0,0-2.432-3.616,10.042,10.042,0,0,0-4.427-.935c-.5,0-1.185.062-1.87.125a11.023,11.023,0,0,0-2.058.5,4.877,4.877,0,0,0-1.621,1.06,2.5,2.5,0,0,0-.686,1.808,2.741,2.741,0,0,0,.935,2.182,8.474,8.474,0,0,0,2.494,1.434,21.633,21.633,0,0,0,3.492.935c1.309.249,2.681.561,4.053.873s2.681.686,3.99,1.122a10.922,10.922,0,0,1,3.492,1.808,8.993,8.993,0,0,1,2.494,2.806,8.618,8.618,0,0,1,.935,4.177,9.088,9.088,0,0,1-1.372,5.113,11.659,11.659,0,0,1-3.554,3.429,17.624,17.624,0,0,1-4.863,1.933,26.123,26.123,0,0,1-5.3.624,22.329,22.329,0,0,1-5.923-.748,15.084,15.084,0,0,1-4.739-2.182,10.467,10.467,0,0,1-3.117-3.679,12.012,12.012,0,0,1-1.247-5.237h7.544v.062Zm24.628-23.007h5.674V303.381h7.482v10.163h6.734v5.549H319.01v18.081a19.189,19.189,0,0,0,.125,2.058,4.323,4.323,0,0,0,.436,1.434,2.436,2.436,0,0,0,1.06.873,5.561,5.561,0,0,0,2,.312,13.022,13.022,0,0,0,1.559-.062,13.507,13.507,0,0,0,1.559-.249v5.8c-.811.125-1.621.187-2.432.249a15.5,15.5,0,0,1-2.432.125,16.116,16.116,0,0,1-4.739-.561,6.808,6.808,0,0,1-2.806-1.621,5.8,5.8,0,0,1-1.372-2.681,21.272,21.272,0,0,1-.436-3.741V319.155h-5.674v-5.549Zm25.127,0h7.045v4.614h.125a9.261,9.261,0,0,1,4.364-4.24,14.135,14.135,0,0,1,6.11-1.309,15.364,15.364,0,0,1,6.983,1.434,13.1,13.1,0,0,1,4.926,3.866,16.124,16.124,0,0,1,2.93,5.736,25.188,25.188,0,0,1,.125,13.592,18.343,18.343,0,0,1-2.681,5.674,13.265,13.265,0,0,1-4.552,3.928,13.457,13.457,0,0,1-6.484,1.5,19.024,19.024,0,0,1-3.242-.312,13.8,13.8,0,0,1-3.117-.935,11.183,11.183,0,0,1-2.743-1.683,9.5,9.5,0,0,1-2.12-2.369h-.125V360h-7.482v-46.4ZM357.1,330.565a15.193,15.193,0,0,0-.624-4.427,11.292,11.292,0,0,0-1.808-3.8,9.974,9.974,0,0,0-2.93-2.681,7.976,7.976,0,0,0-4.053-1,8.281,8.281,0,0,0-7.108,3.242,14.767,14.767,0,0,0-2.369,8.729,16.15,16.15,0,0,0,.623,4.739,10.555,10.555,0,0,0,1.871,3.741A8.908,8.908,0,0,0,343.7,341.6a8.454,8.454,0,0,0,4.053.935,8.3,8.3,0,0,0,4.3-1.06,10.048,10.048,0,0,0,2.93-2.681,10.972,10.972,0,0,0,1.621-3.8,21.408,21.408,0,0,0,.5-4.429ZM370.261,300.7h7.482v7.046h-7.482Zm0,12.906h7.482v33.856h-7.482ZM384.415,300.7H391.9v46.762h-7.482Zm30.3,47.7a17.816,17.816,0,0,1-7.233-1.372,16.415,16.415,0,0,1-5.362-3.679,16.015,16.015,0,0,1-3.3-5.674,22.162,22.162,0,0,1-1.185-7.17,20.251,20.251,0,0,1,1.185-7.108,16.582,16.582,0,0,1,3.3-5.674,14.953,14.953,0,0,1,5.362-3.679,18.925,18.925,0,0,1,7.233-1.372,17.817,17.817,0,0,1,7.233,1.372,15.516,15.516,0,0,1,5.362,3.679,16.017,16.017,0,0,1,3.3,5.674,21.784,21.784,0,0,1,1.19,7.1,20.36,20.36,0,0,1-1.185,7.17,17.647,17.647,0,0,1-3.3,5.674,14.955,14.955,0,0,1-5.362,3.679,18.7,18.7,0,0,1-7.237,1.377Zm0-5.923a8.623,8.623,0,0,0,4.3-1.06,9.025,9.025,0,0,0,2.993-2.743,11.751,11.751,0,0,0,1.746-3.8,17.011,17.011,0,0,0,0-8.667,11.179,11.179,0,0,0-1.746-3.8,9.471,9.471,0,0,0-2.993-2.681,8.8,8.8,0,0,0-4.3-1.06,8.624,8.624,0,0,0-4.3,1.06,9.548,9.548,0,0,0-2.993,2.681,11.177,11.177,0,0,0-1.746,3.8,17.011,17.011,0,0,0,0,8.667,11.179,11.179,0,0,0,1.746,3.8,9.671,9.671,0,0,0,2.993,2.743,8.165,8.165,0,0,0,4.3,1.057Zm19.328-28.868h5.674V303.381H447.2v10.163h6.734v5.549H447.2v18.081a19.181,19.181,0,0,0,.125,2.058,4.321,4.321,0,0,0,.436,1.434,2.436,2.436,0,0,0,1.06.873,5.562,5.562,0,0,0,2,.312,13.034,13.034,0,0,0,1.559-.062,13.515,13.515,0,0,0,1.559-.249v5.8c-.811.125-1.621.187-2.432.249a15.5,15.5,0,0,1-2.432.125,16.116,16.116,0,0,1-4.739-.561,6.808,6.808,0,0,1-2.806-1.621,5.8,5.8,0,0,1-1.372-2.681,21.283,21.283,0,0,1-.436-3.741V319.155h-5.674v-5.549Z" transform="translate(-79.84 -268.16)" fill="#2f4858" stroke="#283640" stroke-width="2"/><g transform="matrix(1, 0, 0, 1, -3.08, -3.24)" filter="url(#c)"><path d="M110.1,281.046H75.866L65.329,248.5l-10.6,32.546-34.23-.062,27.683,20.139-10.6,32.546L65.265,313.53,92.95,333.669,82.413,301.123Z" transform="translate(-17.42 -245.26)" fill="#8fd6b7" stroke="#283640" stroke-width="2"/></g><path d="M111.853,340.257l-2.369-7.357L92.4,345.308Z" transform="translate(-47.571 -280.277)" fill="#005128"/></g></g></svg>